<?xml version="1.0" encoding="UTF-8" standalone="no"?>
<svg
   xmlns:dc="http://purl.org/dc/elements/1.1/"
   xmlns:cc="http://creativecommons.org/ns#"
   xmlns:rdf="http://www.w3.org/1999/02/22-rdf-syntax-ns#"
   xmlns:svg="http://www.w3.org/2000/svg"
   xmlns="http://www.w3.org/2000/svg"
   xmlns:xlink="http://www.w3.org/1999/xlink"
   xmlns:sodipodi="http://sodipodi.sourceforge.net/DTD/sodipodi-0.dtd"
   xmlns:inkscape="http://www.inkscape.org/namespaces/inkscape"
   version="1.0"
   width="2766pt"
   height="1461pt"
   viewBox="0 0 2766 1461"
   preserveAspectRatio="xMidYMid meet"
   id="svg6"
   sodipodi:docname="Optix.svg"
   inkscape:version="0.92.4 (5da689c313, 2019-01-14)">
  <metadata
     id="metadata12">
    <rdf:RDF>
      <cc:Work
         rdf:about="">
        <dc:format>image/svg+xml</dc:format>
        <dc:type
           rdf:resource="http://purl.org/dc/dcmitype/StillImage" />
        <dc:title></dc:title>
      </cc:Work>
    </rdf:RDF>
  </metadata>
  <defs
     id="defs10">
    <linearGradient
       id="linearGradient931"
       inkscape:collect="always">
      <stop
         id="stop927"
         offset="0"
         style="stop-color:#ffff00;stop-opacity:1" />
      <stop
         id="stop929"
         offset="1"
         style="stop-color:#ff0000;stop-opacity:1" />
    </linearGradient>
    <linearGradient
       id="linearGradient925"
       inkscape:collect="always">
      <stop
         id="stop921"
         offset="0"
         style="stop-color:#ffff00;stop-opacity:1" />
      <stop
         id="stop923"
         offset="1"
         style="stop-color:#ff0000;stop-opacity:1" />
    </linearGradient>
    <linearGradient
       id="linearGradient919"
       inkscape:collect="always">
      <stop
         id="stop915"
         offset="0"
         style="stop-color:#ffff00;stop-opacity:1" />
      <stop
         id="stop917"
         offset="1"
         style="stop-color:#ff0000;stop-opacity:1" />
    </linearGradient>
    <linearGradient
       id="linearGradient913"
       inkscape:collect="always">
      <stop
         id="stop909"
         offset="0"
         style="stop-color:#ffff00;stop-opacity:1" />
      <stop
         id="stop911"
         offset="1"
         style="stop-color:#ff0000;stop-opacity:1" />
    </linearGradient>
    <linearGradient
       id="linearGradient907"
       inkscape:collect="always">
      <stop
         id="stop903"
         offset="0"
         style="stop-color:#ffff00;stop-opacity:1" />
      <stop
         id="stop905"
         offset="1"
         style="stop-color:#ff0000;stop-opacity:1" />
    </linearGradient>
    <linearGradient
       id="linearGradient901"
       inkscape:collect="always">
      <stop
         id="stop897"
         offset="0"
         style="stop-color:#ffff00;stop-opacity:1" />
      <stop
         id="stop899"
         offset="1"
         style="stop-color:#ff0000;stop-opacity:1" />
    </linearGradient>
    <linearGradient
       id="linearGradient895"
       inkscape:collect="always">
      <stop
         id="stop891"
         offset="0"
         style="stop-color:#ffff00;stop-opacity:1" />
      <stop
         id="stop893"
         offset="1"
         style="stop-color:#ff0000;stop-opacity:1" />
    </linearGradient>
    <linearGradient
       id="linearGradient889"
       inkscape:collect="always">
      <stop
         id="stop885"
         offset="0"
         style="stop-color:#ffff00;stop-opacity:1" />
      <stop
         id="stop887"
         offset="1"
         style="stop-color:#ff0000;stop-opacity:1" />
    </linearGradient>
    <linearGradient
       id="linearGradient883"
       inkscape:collect="always">
      <stop
         id="stop879"
         offset="0"
         style="stop-color:#ffff00;stop-opacity:1" />
      <stop
         id="stop881"
         offset="1"
         style="stop-color:#ff0000;stop-opacity:1" />
    </linearGradient>
    <linearGradient
       inkscape:collect="always"
       id="linearGradient857">
      <stop
         style="stop-color:#ffff00;stop-opacity:1"
         offset="0"
         id="stop853" />
      <stop
         style="stop-color:#ff0000;stop-opacity:1"
         offset="1"
         id="stop855" />
    </linearGradient>
    <linearGradient
       inkscape:collect="always"
       xlink:href="#linearGradient857"
       id="linearGradient859"
       x1="879.70001"
       y1="0"
       x2="879.70001"
       y2="1470"
       gradientUnits="userSpaceOnUse" />
    <linearGradient
       inkscape:collect="always"
       xlink:href="#linearGradient931"
       id="linearGradient861"
       x1="879.70001"
       y1="0"
       x2="879.70001"
       y2="1470"
       gradientUnits="userSpaceOnUse" />
    <linearGradient
       inkscape:collect="always"
       xlink:href="#linearGradient925"
       id="linearGradient863"
       x1="879.70001"
       y1="0"
       x2="879.70001"
       y2="1470"
       gradientUnits="userSpaceOnUse" />
    <linearGradient
       inkscape:collect="always"
       xlink:href="#linearGradient919"
       id="linearGradient865"
       x1="879.70001"
       y1="0"
       x2="879.70001"
       y2="1470"
       gradientUnits="userSpaceOnUse" />
    <linearGradient
       inkscape:collect="always"
       xlink:href="#linearGradient913"
       id="linearGradient867"
       x1="879.70001"
       y1="0"
       x2="879.70001"
       y2="1470"
       gradientUnits="userSpaceOnUse" />
    <linearGradient
       inkscape:collect="always"
       xlink:href="#linearGradient907"
       id="linearGradient869"
       x1="879.70001"
       y1="0"
       x2="879.70001"
       y2="1470"
       gradientUnits="userSpaceOnUse" />
    <linearGradient
       inkscape:collect="always"
       xlink:href="#linearGradient901"
       id="linearGradient871"
       x1="879.70001"
       y1="0"
       x2="879.70001"
       y2="1470"
       gradientUnits="userSpaceOnUse" />
    <linearGradient
       inkscape:collect="always"
       xlink:href="#linearGradient895"
       id="linearGradient873"
       x1="879.70001"
       y1="0"
       x2="879.70001"
       y2="1470"
       gradientUnits="userSpaceOnUse" />
    <linearGradient
       inkscape:collect="always"
       xlink:href="#linearGradient889"
       id="linearGradient875"
       x1="879.70001"
       y1="0"
       x2="879.70001"
       y2="1470"
       gradientUnits="userSpaceOnUse" />
    <linearGradient
       inkscape:collect="always"
       xlink:href="#linearGradient883"
       id="linearGradient877"
       x1="879.70001"
       y1="0"
       x2="879.70001"
       y2="1470"
       gradientUnits="userSpaceOnUse" />
  </defs>
  <sodipodi:namedview
     pagecolor="#000000"
     bordercolor="#666666"
     borderopacity="1"
     objecttolerance="10"
     gridtolerance="10"
     guidetolerance="10"
     inkscape:pageopacity="0"
     inkscape:pageshadow="2"
     inkscape:window-width="1920"
     inkscape:window-height="1057"
     id="namedview8"
     showgrid="false"
     fit-margin-top="0"
     fit-margin-left="0"
     fit-margin-right="0"
     fit-margin-bottom="0"
     inkscape:zoom="0.25"
     inkscape:cx="1401.1723"
     inkscape:cy="1239.9044"
     inkscape:window-x="-8"
     inkscape:window-y="-8"
     inkscape:window-maximized="1"
     inkscape:current-layer="svg6" />
  <path
     style="fill:url(#linearGradient859);stroke:none;stroke-width:0.1;fill-opacity:1"
     d="m 514.7,365.1 -365.1,365 125.7,125.7 125.7,125.7 -9.2,9.3 -9.3,9.2 L 247.8,865.3 113,730.5 478.2,365.3 843.5,0 h 18.1 18.1 z"
     id="path849"
     inkscape:connector-curvature="0" />
  <path
     style="fill:url(#linearGradient861);stroke:none;stroke-width:0.1;fill-opacity:1"
     d="M 591,365.2 225.9,730.4 332.4,836.9 439,943.5 429.8,952.8 420.5,962 304.9,846.4 189.3,730.8 554.4,365.5 919.5,0.2 937.8,0.1 956.2,0 Z"
     id="path847"
     inkscape:connector-curvature="0" />
  <path
     style="fill:url(#linearGradient863);stroke:none;stroke-width:0.1;fill-opacity:1"
     d="M 477.7,1095.8 112.5,1461 56.2,1460.8 0,1460.5 365,1095.5 729.9,730.5 623.5,624 517,517.5 545.2,489.2 573.5,461 708.2,595.7 843,730.5 Z"
     id="path845"
     inkscape:connector-curvature="0" />
  <path
     style="fill:url(#linearGradient865);stroke:none;stroke-width:0.1;fill-opacity:1"
     d="m 1047.2,618.7 13.3,13.3 H 941 821.5 l -13.5,-13.6 -13.5,-13.6 119.7,0.4 119.8,0.3 z"
     id="path843"
     inkscape:connector-curvature="0" />
  <path
     style="fill:url(#linearGradient867);stroke:none;stroke-width:0.1;fill-opacity:1"
     d="m 2052.6,835 268.8,225 h 222.3 222.3 v 13.5 13.5 H 2539.5 2313.1 L 2044.3,862 1775.6,637 h -316.1 -316 L 1130,623.5 1116.5,610 h 333.7 333.7 z"
     id="path841"
     inkscape:connector-curvature="0" />
  <path
     style="fill:url(#linearGradient869);stroke:none;stroke-width:0.1;fill-opacity:1"
     d="m 2259.5,737 c -69.8,69.9 -127.3,126.9 -127.7,126.8 -0.4,-0.2 -5.5,-4.4 -11.4,-9.3 -5.9,-5 -14.9,-12.4 -19.9,-16.5 -5.1,-4.1 -12.3,-10.2 -16.1,-13.5 -3.8,-3.3 -8.5,-7.3 -10.3,-8.8 l -3.4,-2.9 101.4,-101.4 101.4,-101.4 h 56.5 56.5 z"
     id="path839"
     inkscape:connector-curvature="0" />
  <path
     style="fill:url(#linearGradient871);stroke:none;stroke-width:0.1;fill-opacity:1"
     d="m 1157.9,730.1 70.5,71.1 -78,77.2 c -42.8,42.4 -118.4,117.2 -167.9,166.2 l -90,89.1 -0.3,163.7 L 892,1461 H 851.5 811 V 1150.7 840.5 l 40.5,-40.5 40.5,-40.5 0.2,131.2 0.3,131.1 111,-109.7 c 61.1,-60.4 111,-110.5 111,-111.3 0,-0.8 -25.3,-27 -56.1,-58.2 L 1002.2,686 H 938.8 875.5 L 862,672.5 848.5,659 968,659.1 h 119.5 z"
     id="path837"
     inkscape:connector-curvature="0" />
  <path
     style="fill:url(#linearGradient873);stroke:none;stroke-width:0.1;fill-opacity:1"
     d="m 2033,889 268.5,224.9 232.3,0.1 H 2766 v 13.5 13.5 H 2529.7 2293.5 L 2024.7,916 1756,691 h -181 -181 v 184.7 184.8 l 40.2,40.2 40.3,40.3 H 1393.7 1313 V 916 691 h -57.8 -57.7 L 1184,677.5 1170.5,664 h 297 l 297,0.1 z"
     id="path835"
     inkscape:connector-curvature="0" />
  <path
     style="fill:url(#linearGradient875);stroke:none;stroke-width:0.1;fill-opacity:1"
     d="m 1660,943 v 198 H 1619.5 1579 V 943 745 h 40.5 40.5 z"
     id="path833"
     inkscape:connector-curvature="0" />
  <path
     style="fill:url(#linearGradient877);stroke:none;stroke-width:0.1;fill-opacity:1"
     d="m 1997.5,930.5 c 7.7,6.6 16.3,13.8 19,16 2.8,2.2 8,6.5 11.6,9.6 l 6.7,5.6 -89.7,89.7 -89.6,89.6 h -56.5 -56.5 l 115.4,-115.4 115.5,-115.5 5,4.2 c 2.8,2.3 11.4,9.6 19.1,16.2 z"
     id="path2"
     inkscape:connector-curvature="0" />
</svg>
